<svg id="Layer_1" data-name="Layer 1" xmlns="http://www.w3.org/2000/svg" viewBox="0 0 50 50"><defs><style>.cls-1{fill:#737373;}</style></defs><title>Untitled-1</title><path class="cls-1" d="M21.12,25a6.45,6.45,0,0,0,2.07-1.51,5.89,5.89,0,0,0,1.25-3.94,6.71,6.71,0,0,0-1.24-4.07c-1.38-1.85-3.71-2.8-7-2.84H3.11V39.36H15.3A19,19,0,0,0,19.12,39a7.47,7.47,0,0,0,5-3.44,7.72,7.72,0,0,0,1.2-4.25,7,7,0,0,0-1.05-3.91A6.12,6.12,0,0,0,21.12,25ZM8.51,17.31h5.88a10.21,10.21,0,0,1,3.2.42,2.39,2.39,0,0,1,1.46,2.46A2.53,2.53,0,0,1,18,22.54a5.57,5.57,0,0,1-2.87.66H8.51Zm9.31,17a6.52,6.52,0,0,1-2.74.47H8.51V27.61h6.66a7.05,7.05,0,0,1,2.7.45,2.87,2.87,0,0,1,1.73,2.87A3.37,3.37,0,0,1,17.82,34.26Z"/><rect class="cls-1" x="31.09" y="13.92" width="11.59" height="3.32"/><path class="cls-1" d="M46.71,27A9.43,9.43,0,0,0,45.11,23,8.15,8.15,0,0,0,41.66,20,11.32,11.32,0,0,0,37,19.11a9.73,9.73,0,0,0-7.15,2.73Q27,24.59,27,29.71q0,5.48,3.06,7.9a11,11,0,0,0,7,2.43,9.79,9.79,0,0,0,7.53-2.88,6.45,6.45,0,0,0,1.94-3.57H41.27A4.33,4.33,0,0,1,40.19,35a4.47,4.47,0,0,1-2.9.9,5.42,5.42,0,0,1-2.89-.74A4.71,4.71,0,0,1,32.31,31H46.88A25.74,25.74,0,0,0,46.71,27Zm-14.27.51a5.38,5.38,0,0,1,1.39-3.05A4.21,4.21,0,0,1,37,23.36a4.63,4.63,0,0,1,3.1,1.06,4.28,4.28,0,0,1,1.39,3.12Z"/></svg>