<svg id="Layer_1" data-name="Layer 1" xmlns="http://www.w3.org/2000/svg" viewBox="0 0 64.91 61.7"><defs><style>.cls-1{fill:#161616;}</style></defs><title>homeblack</title><path class="cls-1" d="M63.82,27.41l-5.48-5V5.85a1.91,1.91,0,0,0-1.91-1.91H43.23a1.9,1.9,0,0,0-1.91,1.91V6.91L34.7.87a3.33,3.33,0,0,0-4.49,0L1.09,27.41A3.33,3.33,0,0,0,3.33,33.2H8V59.79A1.92,1.92,0,0,0,9.89,61.7h16a1.91,1.91,0,0,0,1.91-1.91V43.64h9.39V59.79a1.91,1.91,0,0,0,1.9,1.91H55a1.9,1.9,0,0,0,1.9-1.91V33.2h4.66a3.33,3.33,0,0,0,2.24-5.79Zm-8.8,2a1.91,1.91,0,0,0-1.91,1.91V57.88H41V41.73a1.9,1.9,0,0,0-1.91-1.9H25.85a1.9,1.9,0,0,0-1.9,1.9V57.88H11.8V31.29a1.91,1.91,0,0,0-1.91-1.91H4.59L32.45,4l9.49,8.64a1.91,1.91,0,0,0,3.2-1.41V7.76h9.38v15.5a1.9,1.9,0,0,0,.62,1.41l5.17,4.71Z"/></svg>