<svg id="Layer_1" data-name="Layer 1" xmlns="http://www.w3.org/2000/svg" viewBox="0 0 50 50"><defs><style>.cls-1{fill:#737373;}</style></defs><title>Untitled-1</title><path class="cls-1" d="M13.08,10A3.52,3.52,0,1,0,13,17h0a3.52,3.52,0,1,0,0-7Z"/><path class="cls-1" d="M9.67,19.75h6.74V40H9.67Z"/><path class="cls-1" d="M33,19.27c-3.64,0-6.08,3.42-6.08,3.42V19.75H20.14V40h6.75V28.7a4.56,4.56,0,0,1,.22-1.64,3.7,3.7,0,0,1,3.46-2.47C33,24.59,34,26.45,34,29.18V40h6.74V28.4C40.73,22.17,37.4,19.27,33,19.27Z"/></svg>