<svg id="Layer_1" data-name="Layer 1" xmlns="http://www.w3.org/2000/svg" viewBox="0 0 50 50"><defs><style>.cls-1{fill:#737373;}</style></defs><title>Untitled-1</title><path class="cls-1" d="M39.42,30.38c-.12-.06-4.77-2.35-5.6-2.64a3.21,3.21,0,0,0-1.08-.24,1.84,1.84,0,0,0-1.57.93c-.46.69-1.87,2.33-2.3,2.82-.06.06-.13.14-.18.14s-.76-.29-1-.39c-5-2.16-8.77-7.37-9.29-8.25a.72.72,0,0,1-.08-.19,2.18,2.18,0,0,1,.27-.32c.26-.25.53-.58.8-.9l.37-.44a5,5,0,0,0,.76-1.2l.1-.21a2.16,2.16,0,0,0-.06-2c-.11-.22-2.07-5-2.28-5.46-.51-1.2-1.17-1.76-2.09-1.76l-.36,0a11.17,11.17,0,0,0-3.86,1c-1.12.7-3,2.95-3,6.89,0,3.54,2.26,6.89,3.22,8.16l.13.19c3.7,5.41,8.32,9.41,13,11.28,4.5,1.8,6.64,2,7.85,2h0a11.05,11.05,0,0,0,1.28-.08l.22,0c1.56-.14,5-1.91,5.75-4.07.62-1.7.78-3.56.37-4.23A3,3,0,0,0,39.42,30.38Z"/></svg>